<svg id="图层_1" data-name="图层 1" xmlns="http://www.w3.org/2000/svg" viewBox="0 0 464 176"><defs><style>.cls-1{fill:#fff;}</style></defs><path class="cls-1" d="M0,128.15V.18H15.92V112.79H72.51v15.36Z"/><path class="cls-1" d="M191.46,128.15V36.34l-37.18,91.81H138.72l-36.27-92v92H87.64V.18h17.79l41.89,106.23L190.33.18h16.48v128Z"/><path class="cls-1" d="M418.68,15.36V128.15H402.74V15.36H358.33V.18H464V15.36H418.68Z"/><rect class="cls-1" x="224.8" y="113.85" width="14.3" height="14.3"/><path class="cls-1" d="M41,175.66V150.11h3.18v22.48h11.3v3.07Z"/><path class="cls-1" d="M61.93,153.66a1.94,1.94,0,0,1-2-1.91,2,2,0,0,1,4,0A1.94,1.94,0,0,1,61.93,153.66Zm-1.5,22V158h3v17.62Z"/><path class="cls-1" d="M83.08,175.66a6.31,6.31,0,0,1-1.87.23A3,3,0,0,1,78.44,174a6.08,6.08,0,0,1-4.56,2c-2.73,0-5.24-1.53-5.24-5,0-4.67,5.69-5.27,7.41-5.5a18.84,18.84,0,0,1,2.06-.15v-.82c0-2.77-.75-4-3.59-4a7.26,7.26,0,0,0-4.61,2l-.48-2.73a9,9,0,0,1,5.76-2c3.59,0,5.8,1.69,5.8,5.43,0,1.23-.08,3.22-.08,7,0,1.95.15,3.26,1.76,3.26a7.94,7.94,0,0,0,1-.07Zm-7.82-7.82c-1.68.3-3.63,1.12-3.63,3a2.74,2.74,0,0,0,3,2.73,4.32,4.32,0,0,0,3.4-1.69l0-4.3A14.87,14.87,0,0,0,75.26,167.84Z"/><path class="cls-1" d="M111.27,175.66v-6c0-1.5,0-3.52,0-4.34-.08-2.55-.71-4.83-3.93-4.83a6.18,6.18,0,0,0-4.68,1.94,14,14,0,0,1,.22,2.36v10.85H99.9v-6c0-1.5,0-3.41,0-4.34-.07-2.55-.71-4.83-3.93-4.83a5.91,5.91,0,0,0-4.53,1.79v13.36h-3V158h3V160A8.17,8.17,0,0,1,97,157.81a5.19,5.19,0,0,1,4.94,2.62,9.41,9.41,0,0,1,6.44-2.62c5.83,0,5.83,5.5,5.87,7v10.85Z"/><path class="cls-1" d="M171.49,175.66a6.39,6.39,0,0,1-1.87.23,2.93,2.93,0,0,1-2.77-1.91,6.11,6.11,0,0,1-4.57,2c-2.73,0-5.24-1.53-5.24-5,0-4.67,5.69-5.27,7.41-5.5a19,19,0,0,1,2.06-.15v-.82c0-2.77-.75-4-3.59-4a7.26,7.26,0,0,0-4.61,2l-.48-2.73a9,9,0,0,1,5.76-2c3.59,0,5.8,1.69,5.8,5.43,0,1.23-.07,3.22-.07,7,0,1.95.15,3.26,1.75,3.26a7.94,7.94,0,0,0,1-.07Zm-7.82-7.82c-1.69.3-3.63,1.12-3.63,3a2.73,2.73,0,0,0,3,2.73,4.32,4.32,0,0,0,3.4-1.69l0-4.3A14.74,14.74,0,0,0,163.67,167.84Z"/><path class="cls-1" d="M188.3,175.66v-6c0-1.5,0-3.48,0-4.34-.07-2.55-.71-4.83-3.93-4.83a6,6,0,0,0-4.52,1.72v13.43h-3V147h3v12.87a8.75,8.75,0,0,1,5.57-2.06c5.84,0,5.84,5.5,5.88,7v10.85Z"/><path class="cls-1" d="M199.8,167a5.94,5.94,0,0,0,6.14,6.32,9.16,9.16,0,0,0,5.5-1.79v2.84a10.79,10.79,0,0,1-6.25,1.61c-4.79,0-8.42-3.26-8.42-9.35,0-5.62,3.48-8.84,7.93-8.84s6.78,3.67,6.78,8.05V167Zm4.53-6.74c-2.51,0-4.08,1.58-4.3,4.34h8C208,161.82,206.69,160.28,204.33,160.28Z"/><path class="cls-1" d="M227.13,161.07a6.45,6.45,0,0,0-2.47-.41c-3.11,0-4,1.83-4.27,2.28v12.72h-2.95V158h2.95v2.36a5.25,5.25,0,0,1,4.68-2.66,5.74,5.74,0,0,1,2.25.37Z"/><path class="cls-1" d="M258.82,175.78c-2.7,0-4.76-1.5-7.11-4.35-2-2.43-4.38-5.8-4.38-5.8s-.49,0-.79,0c-1,0-4.15-.11-4.15-.11v10.1h-3.18V150.11s4.71,0,7.22,0c3.59,0,5.91.9,7.33,2.39a7.25,7.25,0,0,1,1.8,5,7.61,7.61,0,0,1-4.94,7.34,44.08,44.08,0,0,0,3.56,4.45c3.06,3.29,4.15,3.82,5.57,3.82a5.66,5.66,0,0,0,.67,0v2.55A9.63,9.63,0,0,1,258.82,175.78Zm-8-21.6c-1.05-1.08-2.7-1.53-5.05-1.53-1.58,0-3.37.08-3.37.08v10.14s2.54.11,3.67.11c2,0,3.36-.34,4.45-1.39a5.18,5.18,0,0,0,1.61-3.85A4.86,4.86,0,0,0,250.81,154.18Z"/><path class="cls-1" d="M274.72,175.66v-2a8,8,0,0,1-5.54,2.17c-5.61,0-5.76-4.68-5.8-7.11V158h2.95v10c0,3.29.79,5.2,3.93,5.2a6,6,0,0,0,4.46-1.87V158h2.95v17.62Z"/><path class="cls-1" d="M292.89,161.07a6.45,6.45,0,0,0-2.47-.41c-3.11,0-4,1.83-4.27,2.28v12.72H283.2V158h2.95v2.36a5.24,5.24,0,0,1,4.68-2.66,5.74,5.74,0,0,1,2.25.37Z"/><path class="cls-1" d="M310.45,175.66a6.31,6.31,0,0,1-1.87.23,3,3,0,0,1-2.77-1.91,6.11,6.11,0,0,1-4.57,2c-2.73,0-5.23-1.53-5.23-5,0-4.67,5.68-5.27,7.4-5.5a19,19,0,0,1,2.06-.15v-.82c0-2.77-.75-4-3.59-4a7.22,7.22,0,0,0-4.6,2l-.49-2.73a9,9,0,0,1,5.76-2c3.6,0,5.8,1.69,5.8,5.43,0,1.23-.07,3.22-.07,7,0,1.95.15,3.26,1.76,3.26a7.68,7.68,0,0,0,1-.07Zm-7.82-7.82c-1.68.3-3.63,1.12-3.63,3a2.73,2.73,0,0,0,3,2.73,4.32,4.32,0,0,0,3.41-1.69l0-4.3A14.79,14.79,0,0,0,302.63,167.84Z"/><path class="cls-1" d="M314.83,175.66V147h2.95v28.66Z"/><path class="cls-1" d="M340.65,153.14v22.52h-3.18V153.14H328.6v-3h21.1v3Z"/><path class="cls-1" d="M362.61,175.66a6.31,6.31,0,0,1-1.87.23A3,3,0,0,1,358,174a6.11,6.11,0,0,1-4.57,2c-2.73,0-5.23-1.53-5.23-5,0-4.67,5.68-5.27,7.4-5.5a19,19,0,0,1,2.06-.15v-.82c0-2.77-.75-4-3.59-4a7.22,7.22,0,0,0-4.6,2L349,159.8a9,9,0,0,1,5.76-2c3.6,0,5.8,1.69,5.8,5.43,0,1.23-.07,3.22-.07,7,0,1.95.15,3.26,1.76,3.26a7.68,7.68,0,0,0,1-.07Zm-7.82-7.82c-1.68.3-3.63,1.12-3.63,3a2.73,2.73,0,0,0,3,2.73,4.32,4.32,0,0,0,3.41-1.69l0-4.3A14.79,14.79,0,0,0,354.79,167.84Z"/><path class="cls-1" d="M368.48,153.66a2,2,0,0,1-2-1.91,2,2,0,0,1,4,0A1.94,1.94,0,0,1,368.48,153.66Zm-1.49,22V158h2.95v17.62Z"/><path class="cls-1" d="M374.94,175.66V147h3v28.66Z"/><path class="cls-1" d="M389.93,176c-4.82,0-8.3-3.26-8.3-9,0-6,4-9.21,8.57-9.21,5.2,0,8.42,3,8.42,9C398.62,173,394.46,176,389.93,176Zm.19-15.57c-4,0-5.39,3.26-5.39,6.44,0,3.52,1.57,6.51,5.43,6.51s5.28-3.18,5.28-6.55C395.44,163.73,394.16,160.43,390.12,160.43Z"/><path class="cls-1" d="M413,161.07a6.45,6.45,0,0,0-2.47-.41c-3.1,0-4,1.83-4.26,2.28v12.72h-3V158h3v2.36a5.22,5.22,0,0,1,4.67-2.66,5.74,5.74,0,0,1,2.25.37Z"/><path class="cls-1" d="M148,175.66V157.34l-7.42,18.32h-3.1l-7.24-18.36v18.36h-3V150.12h3.55l8.36,21.2,8.59-21.2h3.29v25.54Z"/><path class="cls-1" d="M354.81,128c-13.41,0-23.65-7.44-35.4-21.61-10.06-12.1-21.79-28.87-21.79-28.87s-2.42.18-3.9.18c-5.23,0-20.69-.56-20.69-.56v50.3H257.2V.18s23.47-.18,36-.18C311,0,322.59,4.46,329.67,11.93c6,6.52,8.95,15.08,8.95,25.15,0,20.11-12.29,31.47-24.59,36.51a220.66,220.66,0,0,0,17.69,22.18c15.26,16.38,20.67,19,27.75,19a30.82,30.82,0,0,0,3.34-.18v12.67a48.79,48.79,0,0,1-8,.74ZM315,20.49c-5.22-5.4-13.41-7.64-25.15-7.64-7.83,0-16.77.38-16.77.38V63.71s12.66.56,18.27.56c9.88,0,16.76-1.68,22.17-6.88a26,26,0,0,0,8-19.19c0-7.45-2.24-13.41-6.52-17.69Z"/></svg>