<svg id="图层_1" data-name="图层 1" xmlns="http://www.w3.org/2000/svg" viewBox="0 0 464 166.34"><defs><style>.cls-1{fill:#fff;}</style></defs><path class="cls-1" d="M0,128.15V.18H15.92V112.79H73.51v15.36Z"/><path class="cls-1" d="M191.46,128.15V36.34l-36.18,91.81H139.72l-35.27-92v92H89.64V.18h17.8l40.88,106.23L190.33.18h16.48v128Z"/><path class="cls-1" d="M418.68,15.36V128.15H402.74V15.36H358.33V.18H464V15.36H418.68Z"/><rect class="cls-1" x="224.8" y="113.85" width="14.3" height="14.3"/><path class="cls-1" d="M357.36,128.71c-13.48,0-23.78-7.49-35.59-21.73-10.13-12.18-21.92-29-21.92-29s-2.44.18-3.93.18c-5.25,0-22.8-.56-22.8-.56v50.59H257.2V.18S282.8,0,295.36,0c18,0,29.6,4.49,36.73,12,6,6.56,9,15.18,9,25.3,0,20.22-12.36,31.65-24.73,36.72a222.89,222.89,0,0,0,17.79,22.3c15.36,16.48,20.79,19.12,27.91,19.12a31.22,31.22,0,0,0,3.36-.18V128a48.69,48.69,0,0,1-8.05.75ZM317.28,20.61c-5.26-5.44-13.49-7.69-25.3-7.69-7.87,0-18.86.38-18.86.38V64.07s14.74.57,20.37.57c9.94,0,16.86-1.69,22.3-6.93a26.07,26.07,0,0,0,8-19.29c0-7.49-2.26-13.49-6.56-17.79Z"/><path class="cls-1" d="M64.69,166.27V149.2h2.12v15h7.55v2.05Z"/><path class="cls-1" d="M77.24,166.27V149.2h2.12v17.07Z"/><path class="cls-1" d="M95.89,166.27l-2.48-6.33H87.19l-2.48,6.33H82.54l6.85-17.07h2l6.84,17.07Zm-5.58-14.22-2.37,6h4.72Z"/><path class="cls-1" d="M116,166.27V154l-5.3,12.25h-2.07L103.34,154v12.28h-2V149.2h2.38l6.05,14.17,6.07-14.17h2.2v17.07Z"/><path class="cls-1" d="M147.26,166.27V154L142,166.27h-2.07L134.59,154v12.28h-2V149.2H135l6,14.17,6.08-14.17h2.2v17.07Z"/><path class="cls-1" d="M165.83,166.27l-2.47-6.33h-6.22l-2.48,6.33h-2.17l6.85-17.07h1.95l6.84,17.07Zm-5.57-14.22-2.37,6h4.72Z"/><path class="cls-1" d="M182.63,166.27v-7.83h-9.19v7.83h-2.13V149.2h2.13v7.17h9.19V149.2h2.13v17.07Z"/><path class="cls-1" d="M189.31,166.27V149.2h9.32v2h-7.19v5.37h6.94v2h-6.94v5.62h7.79v2Z"/><path class="cls-1" d="M215.31,166.34c-1.8,0-3.18-1-4.75-2.9-1.35-1.62-2.92-3.87-2.92-3.87l-.53,0c-.7,0-2.77-.07-2.77-.07v6.75h-2.13V149.2s3.15,0,4.82,0c2.4,0,3.95.6,4.9,1.6a4.86,4.86,0,0,1,1.2,3.37,5.08,5.08,0,0,1-3.3,4.9,31.34,31.34,0,0,0,2.38,3c2,2.2,2.77,2.55,3.72,2.55a3.38,3.38,0,0,0,.45,0v1.7A6.44,6.44,0,0,1,215.31,166.34ZM210,151.92a4.5,4.5,0,0,0-3.37-1c-1.05,0-2.25,0-2.25,0v6.77s1.7.07,2.44.07a4,4,0,0,0,3-.92,3.48,3.48,0,0,0,1.07-2.57A3.27,3.27,0,0,0,210,151.92Z"/><path class="cls-1" d="M241.66,166.34c-1.8,0-3.18-1-4.75-2.9-1.35-1.62-2.92-3.87-2.92-3.87l-.53,0c-.7,0-2.77-.07-2.77-.07v6.75h-2.13V149.2s3.15,0,4.83,0c2.39,0,3.94.6,4.89,1.6a4.86,4.86,0,0,1,1.2,3.37,5.08,5.08,0,0,1-3.3,4.9,31.34,31.34,0,0,0,2.38,3c2.05,2.2,2.77,2.55,3.72,2.55a3.38,3.38,0,0,0,.45,0v1.7A6.44,6.44,0,0,1,241.66,166.34Zm-5.35-14.42a4.5,4.5,0,0,0-3.37-1c-1.05,0-2.25,0-2.25,0v6.77s1.7.07,2.45.07a4,4,0,0,0,3-.92,3.48,3.48,0,0,0,1.07-2.57A3.27,3.27,0,0,0,236.31,151.92Z"/><path class="cls-1" d="M258.31,160.34c-.18,4.7-3.45,6.15-6.9,6.15-3.7,0-6.65-1.35-6.9-5.47,0-.93,0-3,0-5.08,0-2.42.08-6.74.08-6.74h2.12s0,4.05,0,6.07c0,1.45,0,3.37,0,5,.05,3,1.77,4.33,4.75,4.33s4.75-1.25,4.9-4.68c0-.57,0-2,0-3.67,0-3.7,0-7.07,0-7.07h2s.05,5.27.05,7.09C258.36,157.44,258.33,159.47,258.31,160.34Z"/><path class="cls-1" d="M275.83,166.34c-1.8,0-3.17-1-4.75-2.9-1.35-1.62-2.92-3.87-2.92-3.87l-.53,0c-.7,0-2.77-.07-2.77-.07v6.75h-2.12V149.2s3.15,0,4.82,0c2.4,0,3.95.6,4.9,1.6a4.86,4.86,0,0,1,1.2,3.37,5.08,5.08,0,0,1-3.3,4.9,29.54,29.54,0,0,0,2.37,3c2,2.2,2.78,2.55,3.73,2.55a3.38,3.38,0,0,0,.45,0v1.7A6.64,6.64,0,0,1,275.83,166.34Zm-5.35-14.42a4.5,4.5,0,0,0-3.37-1c-1.05,0-2.25,0-2.25,0v6.77s1.7.07,2.45.07a3.94,3.94,0,0,0,3-.92,3.49,3.49,0,0,0,1.08-2.57A3.23,3.23,0,0,0,270.48,151.92Z"/><path class="cls-1" d="M291.06,166.27l-2.48-6.33h-6.22l-2.47,6.33h-2.18l6.85-17.07h1.95l6.85,17.07Zm-5.58-14.22-2.37,6h4.72Z"/><path class="cls-1" d="M296.54,166.27V149.2h2.12v15h7.55v2.05Z"/><path class="cls-1" d="M324.91,151.22v15.05h-2.13V151.22h-5.92v-2H331v2Z"/><path class="cls-1" d="M343.18,166.27l-2.47-6.33h-6.23L332,166.27h-2.17l6.84-17.07h1.95l6.85,17.07Zm-5.57-14.22-2.38,6H340Z"/><path class="cls-1" d="M348.66,166.27V149.2h2.12v17.07Z"/><path class="cls-1" d="M355.44,166.27V149.2h2.12v15h7.55v2.05Z"/><path class="cls-1" d="M374.83,166.54c-5.3,0-8.49-3.65-8.49-8.87,0-5.4,3.57-8.77,8.79-8.77,5.5,0,8.43,3.82,8.43,8.82C383.56,163,380.28,166.54,374.83,166.54Zm.18-15.72c-4.23,0-6.37,3-6.37,6.82s2.07,7,6.19,7c4.38,0,6.45-3,6.45-6.95S379,150.82,375,150.82Z"/><path class="cls-1" d="M400.41,166.34c-1.8,0-3.18-1-4.75-2.9-1.35-1.62-2.93-3.87-2.93-3.87l-.52,0c-.7,0-2.78-.07-2.78-.07v6.75h-2.12V149.2s3.15,0,4.82,0c2.4,0,3.95.6,4.9,1.6a4.86,4.86,0,0,1,1.2,3.37,5.08,5.08,0,0,1-3.3,4.9,31.34,31.34,0,0,0,2.38,3c2.05,2.2,2.77,2.55,3.72,2.55a3.38,3.38,0,0,0,.45,0v1.7A6.44,6.44,0,0,1,400.41,166.34Zm-5.35-14.42a4.51,4.51,0,0,0-3.38-1c-1.05,0-2.25,0-2.25,0v6.77s1.7.07,2.45.07a4,4,0,0,0,3-.92,3.48,3.48,0,0,0,1.07-2.57A3.27,3.27,0,0,0,395.06,151.92Z"/></svg>